<?xml version="1.0" encoding="iso-8859-1"?>
<!-- Generator: Adobe Illustrator 18.0.0, SVG Export Plug-In . SVG Version: 6.00 Build 0)  -->
<!DOCTYPE svg PUBLIC "-//W3C//DTD SVG 1.1//EN" "http://www.w3.org/Graphics/SVG/1.1/DTD/svg11.dtd">
<svg version="1.1" id="Capa_1" xmlns="http://www.w3.org/2000/svg" xmlns:xlink="http://www.w3.org/1999/xlink" x="0px" y="0px"
	 viewBox="0 0 392.805 392.805" style="enable-background:new 0 0 392.805 392.805;" xml:space="preserve">
<g>
	<g>
		<rect x="24" y="162.687" style="fill:none;" width="64.938" height="134.355"/>
		<rect x="303.867" y="232.103" style="fill:none;" width="64.938" height="64.939"/>
		<rect x="163.934" y="47.951" style="fill:#73D0F4;" width="64.936" height="249.092"/>
		<path style="fill:#3D6889;" d="M380.805,344.853H12c-6.627,0-12,5.373-12,12c0,6.628,5.373,12,12,12h368.805
			c6.627,0,12-5.372,12-12C392.805,350.227,387.432,344.853,380.805,344.853z"/>
		<path style="fill:#3D6889;" d="M380.805,208.104h-88.938c-6.627,0-12,5.373-12,12v88.939c0,6.627,5.373,12,12,12h88.938
			c6.627,0,12-5.373,12-12v-88.939C392.805,213.477,387.432,208.104,380.805,208.104z M368.805,297.043h-64.938v-64.939h64.938
			V297.043z"/>
		<path style="fill:#3D6889;" d="M12,321.043h88.938c6.627,0,12-5.373,12-12V150.688c0-6.627-5.373-12-12-12H12
			c-6.627,0-12,5.373-12,12v158.355C0,315.67,5.373,321.043,12,321.043z M24,162.688h64.938v134.355H24V162.688z"/>
		<path style="fill:#3D6889;" d="M151.934,321.043h88.936c6.627,0,12-5.373,12-12V35.951c0-6.628-5.373-12-12-12h-88.936
			c-6.627,0-12,5.372-12,12v273.092C139.934,315.67,145.307,321.043,151.934,321.043z M163.934,47.951h64.936v249.092h-64.936
			V47.951z"/>
	</g>
</g>
<g>
</g>
<g>
</g>
<g>
</g>
<g>
</g>
<g>
</g>
<g>
</g>
<g>
</g>
<g>
</g>
<g>
</g>
<g>
</g>
<g>
</g>
<g>
</g>
<g>
</g>
<g>
</g>
<g>
</g>
</svg>
